<mxfile host="app.diagrams.net" modified="2022-09-21T23:57:07.234Z" agent="5.0 (Windows NT 10.0; Win64; x64) AppleWebKit/537.36 (KHTML, like Gecko) Chrome/105.0.0.0 Safari/537.36" etag="xkMO40jJsVdmcBkFCEnh" version="20.3.3" type="github">
  <diagram id="tNPmDfP4OK7pVUQ-0awu" name="Página-1">
    <mxGraphModel dx="868" dy="1611" grid="1" gridSize="10" guides="1" tooltips="1" connect="1" arrows="1" fold="1" page="1" pageScale="1" pageWidth="827" pageHeight="1169" math="0" shadow="0">
      <root>
        <mxCell id="0" />
        <mxCell id="1" parent="0" />
        <mxCell id="jaQy4N7zQNnXUQtbWlnp-8" style="edgeStyle=orthogonalEdgeStyle;rounded=0;orthogonalLoop=1;jettySize=auto;html=1;entryX=0;entryY=0.5;entryDx=0;entryDy=0;" edge="1" parent="1" source="jaQy4N7zQNnXUQtbWlnp-1" target="jaQy4N7zQNnXUQtbWlnp-5">
          <mxGeometry relative="1" as="geometry">
            <Array as="points">
              <mxPoint x="110" y="205" />
            </Array>
          </mxGeometry>
        </mxCell>
        <mxCell id="jaQy4N7zQNnXUQtbWlnp-1" value="Pessoa" style="whiteSpace=wrap;html=1;align=center;" vertex="1" parent="1">
          <mxGeometry x="70" y="100" width="100" height="40" as="geometry" />
        </mxCell>
        <mxCell id="jaQy4N7zQNnXUQtbWlnp-9" style="edgeStyle=orthogonalEdgeStyle;rounded=0;orthogonalLoop=1;jettySize=auto;html=1;entryX=0.5;entryY=0;entryDx=0;entryDy=0;" edge="1" parent="1" source="jaQy4N7zQNnXUQtbWlnp-2" target="jaQy4N7zQNnXUQtbWlnp-5">
          <mxGeometry relative="1" as="geometry" />
        </mxCell>
        <mxCell id="jaQy4N7zQNnXUQtbWlnp-2" value="Banco" style="whiteSpace=wrap;html=1;align=center;" vertex="1" parent="1">
          <mxGeometry x="364" y="20" width="100" height="40" as="geometry" />
        </mxCell>
        <mxCell id="jaQy4N7zQNnXUQtbWlnp-10" style="edgeStyle=orthogonalEdgeStyle;rounded=0;orthogonalLoop=1;jettySize=auto;html=1;entryX=1;entryY=0.5;entryDx=0;entryDy=0;" edge="1" parent="1" source="jaQy4N7zQNnXUQtbWlnp-3" target="jaQy4N7zQNnXUQtbWlnp-5">
          <mxGeometry relative="1" as="geometry">
            <Array as="points">
              <mxPoint x="560" y="205" />
            </Array>
          </mxGeometry>
        </mxCell>
        <mxCell id="jaQy4N7zQNnXUQtbWlnp-3" value="Company" style="whiteSpace=wrap;html=1;align=center;" vertex="1" parent="1">
          <mxGeometry x="510" y="140" width="100" height="40" as="geometry" />
        </mxCell>
        <mxCell id="jaQy4N7zQNnXUQtbWlnp-12" style="edgeStyle=orthogonalEdgeStyle;rounded=0;orthogonalLoop=1;jettySize=auto;html=1;exitX=0.5;exitY=1;exitDx=0;exitDy=0;entryX=0.5;entryY=0;entryDx=0;entryDy=0;" edge="1" parent="1" source="jaQy4N7zQNnXUQtbWlnp-5" target="jaQy4N7zQNnXUQtbWlnp-11">
          <mxGeometry relative="1" as="geometry" />
        </mxCell>
        <mxCell id="jaQy4N7zQNnXUQtbWlnp-5" value="U" style="ellipse;whiteSpace=wrap;html=1;aspect=fixed;" vertex="1" parent="1">
          <mxGeometry x="330" y="180" width="50" height="50" as="geometry" />
        </mxCell>
        <mxCell id="jaQy4N7zQNnXUQtbWlnp-11" value="Ownet" style="whiteSpace=wrap;html=1;align=center;" vertex="1" parent="1">
          <mxGeometry x="305" y="340" width="100" height="40" as="geometry" />
        </mxCell>
        <mxCell id="jaQy4N7zQNnXUQtbWlnp-17" style="edgeStyle=orthogonalEdgeStyle;rounded=0;orthogonalLoop=1;jettySize=auto;html=1;entryX=0.5;entryY=0;entryDx=0;entryDy=0;" edge="1" parent="1" source="jaQy4N7zQNnXUQtbWlnp-15" target="jaQy4N7zQNnXUQtbWlnp-1">
          <mxGeometry relative="1" as="geometry" />
        </mxCell>
        <mxCell id="jaQy4N7zQNnXUQtbWlnp-15" value="Licença" style="ellipse;whiteSpace=wrap;html=1;align=center;fontStyle=4;" vertex="1" parent="1">
          <mxGeometry x="100" y="-40" width="100" height="40" as="geometry" />
        </mxCell>
        <mxCell id="jaQy4N7zQNnXUQtbWlnp-18" style="edgeStyle=orthogonalEdgeStyle;rounded=0;orthogonalLoop=1;jettySize=auto;html=1;entryX=0;entryY=0.5;entryDx=0;entryDy=0;" edge="1" parent="1" source="jaQy4N7zQNnXUQtbWlnp-16" target="jaQy4N7zQNnXUQtbWlnp-1">
          <mxGeometry relative="1" as="geometry" />
        </mxCell>
        <mxCell id="jaQy4N7zQNnXUQtbWlnp-16" value="CPF" style="ellipse;whiteSpace=wrap;html=1;align=center;fontStyle=4;" vertex="1" parent="1">
          <mxGeometry y="20" width="100" height="40" as="geometry" />
        </mxCell>
        <mxCell id="jaQy4N7zQNnXUQtbWlnp-24" style="edgeStyle=orthogonalEdgeStyle;rounded=0;orthogonalLoop=1;jettySize=auto;html=1;entryX=1;entryY=0.5;entryDx=0;entryDy=0;" edge="1" parent="1" source="jaQy4N7zQNnXUQtbWlnp-23" target="jaQy4N7zQNnXUQtbWlnp-1">
          <mxGeometry relative="1" as="geometry" />
        </mxCell>
        <mxCell id="jaQy4N7zQNnXUQtbWlnp-23" value="Endereço" style="ellipse;whiteSpace=wrap;html=1;align=center;" vertex="1" parent="1">
          <mxGeometry x="210" y="40" width="100" height="40" as="geometry" />
        </mxCell>
        <mxCell id="jaQy4N7zQNnXUQtbWlnp-27" style="edgeStyle=orthogonalEdgeStyle;rounded=0;orthogonalLoop=1;jettySize=auto;html=1;entryX=0.9;entryY=-0.05;entryDx=0;entryDy=0;entryPerimeter=0;" edge="1" parent="1" source="jaQy4N7zQNnXUQtbWlnp-25" target="jaQy4N7zQNnXUQtbWlnp-1">
          <mxGeometry relative="1" as="geometry" />
        </mxCell>
        <mxCell id="jaQy4N7zQNnXUQtbWlnp-25" value="Nome" style="ellipse;whiteSpace=wrap;html=1;align=center;" vertex="1" parent="1">
          <mxGeometry x="210" y="-10" width="100" height="40" as="geometry" />
        </mxCell>
        <mxCell id="jaQy4N7zQNnXUQtbWlnp-29" style="edgeStyle=orthogonalEdgeStyle;rounded=0;orthogonalLoop=1;jettySize=auto;html=1;" edge="1" parent="1" source="jaQy4N7zQNnXUQtbWlnp-28" target="jaQy4N7zQNnXUQtbWlnp-2">
          <mxGeometry relative="1" as="geometry">
            <mxPoint x="390" y="30" as="targetPoint" />
          </mxGeometry>
        </mxCell>
        <mxCell id="jaQy4N7zQNnXUQtbWlnp-28" value="Bnome" style="ellipse;whiteSpace=wrap;html=1;align=center;fontStyle=4;" vertex="1" parent="1">
          <mxGeometry x="350" y="-80" width="100" height="40" as="geometry" />
        </mxCell>
        <mxCell id="jaQy4N7zQNnXUQtbWlnp-31" style="edgeStyle=orthogonalEdgeStyle;rounded=0;orthogonalLoop=1;jettySize=auto;html=1;entryX=1;entryY=0.5;entryDx=0;entryDy=0;" edge="1" parent="1" source="jaQy4N7zQNnXUQtbWlnp-30" target="jaQy4N7zQNnXUQtbWlnp-2">
          <mxGeometry relative="1" as="geometry" />
        </mxCell>
        <mxCell id="jaQy4N7zQNnXUQtbWlnp-30" value="Bendereço" style="ellipse;whiteSpace=wrap;html=1;align=center;" vertex="1" parent="1">
          <mxGeometry x="464" y="-70" width="100" height="40" as="geometry" />
        </mxCell>
        <mxCell id="jaQy4N7zQNnXUQtbWlnp-36" style="edgeStyle=orthogonalEdgeStyle;rounded=0;orthogonalLoop=1;jettySize=auto;html=1;entryX=0.75;entryY=1;entryDx=0;entryDy=0;" edge="1" parent="1" source="jaQy4N7zQNnXUQtbWlnp-32" target="jaQy4N7zQNnXUQtbWlnp-3">
          <mxGeometry relative="1" as="geometry" />
        </mxCell>
        <mxCell id="jaQy4N7zQNnXUQtbWlnp-32" value="Cnome" style="ellipse;whiteSpace=wrap;html=1;align=center;fontStyle=4;" vertex="1" parent="1">
          <mxGeometry x="640" y="200" width="100" height="40" as="geometry" />
        </mxCell>
        <mxCell id="jaQy4N7zQNnXUQtbWlnp-37" style="edgeStyle=orthogonalEdgeStyle;rounded=0;orthogonalLoop=1;jettySize=auto;html=1;entryX=0.67;entryY=0;entryDx=0;entryDy=0;entryPerimeter=0;" edge="1" parent="1" source="jaQy4N7zQNnXUQtbWlnp-33" target="jaQy4N7zQNnXUQtbWlnp-3">
          <mxGeometry relative="1" as="geometry" />
        </mxCell>
        <mxCell id="jaQy4N7zQNnXUQtbWlnp-33" value="Cendereço" style="ellipse;whiteSpace=wrap;html=1;align=center;" vertex="1" parent="1">
          <mxGeometry x="650" y="80" width="100" height="40" as="geometry" />
        </mxCell>
      </root>
    </mxGraphModel>
  </diagram>
</mxfile>
